<!DOCTYPE svg PUBLIC "-//W3C//DTD SVG 1.1//EN" "http://www.w3.org/Graphics/SVG/1.1/DTD/svg11.dtd">
<!-- Uploaded to: SVG Repo, www.svgrepo.com, Transformed by: SVG Repo Mixer Tools -->
<svg fill="#fff" version="1.1" id="Capa_1" xmlns="http://www.w3.org/2000/svg" xmlns:xlink="http://www.w3.org/1999/xlink" width="800px" height="800px" viewBox="0 0 376.277 376.277" xml:space="preserve" stroke="#fff">
<g id="SVGRepo_bgCarrier" stroke-width="0"/>
<g id="SVGRepo_tracerCarrier" stroke-linecap="round" stroke-linejoin="round"/>
<g id="SVGRepo_iconCarrier"> <g> <g> <path d="M0,158.913c0-29.269,23.813-53.082,53.082-53.082c28.307,0,51.441,22.292,52.937,50.233 c-24.824,7.143-43.483,28.94-45.921,55.411c-2.302,0.314-4.635,0.53-7.021,0.53C23.809,211.995,0,188.179,0,158.913z"/> <path d="M105.389,167.587c-3.145,19.016-16.399,34.607-34.069,41.105C74.47,189.68,87.72,174.082,105.389,167.587z"/> <path d="M123.634,270.452c-28.308,0-51.442-22.284-52.938-50.231c24.825-7.145,43.484-28.945,45.922-55.41 c2.301-0.318,4.635-0.534,7.021-0.534c1,0,1.979,0.103,2.968,0.14c2.417,28.044,23.006,50.933,49.914,56.811 C174.522,248.703,151.598,270.452,123.634,270.452z"/> <path d="M137.637,166.217c20.195,5.543,35.585,22.708,38.515,43.841C155.957,204.514,140.566,187.354,137.637,166.217z"/> <path d="M187.188,211.843c-2.42-28.037-23.009-50.925-49.917-56.812c2-27.462,24.919-49.205,52.888-49.205 s50.882,21.748,52.889,49.205c-26.909,5.887-47.497,28.775-49.923,56.812c-0.986,0.052-1.953,0.147-2.955,0.147 C189.167,211.995,188.17,211.895,187.188,211.843z"/> <path d="M242.669,166.217c-2.929,21.142-18.321,38.296-38.51,43.841C207.089,188.925,222.47,171.761,242.669,166.217z"/> <path d="M256.675,270.452c-27.97,0-50.888-21.749-52.893-49.201c26.907-5.891,47.496-28.778,49.921-56.813 c0.987-0.053,1.964-0.139,2.961-0.139s1.984,0.102,2.971,0.139c2.415,28.044,23.004,50.933,49.912,56.813 C307.563,248.703,284.633,270.452,256.675,270.452z"/> <path d="M270.68,166.217c20.19,5.543,35.58,22.708,38.51,43.841C288.99,204.514,273.609,187.354,270.68,166.217z"/> <path d="M323.194,211.995c-0.997,0-1.983-0.101-2.971-0.143c-2.413-28.042-23.002-50.929-49.91-56.816 c1.994-27.462,24.912-49.205,52.881-49.205c29.272,0,53.083,23.813,53.083,53.082 C376.277,188.179,352.467,211.995,323.194,211.995z"/> </g> </g> </g>
</svg>